<svg id="Camada_1" data-name="Camada 1" xmlns="http://www.w3.org/2000/svg" viewBox="0 0 250 250"><defs><style>.cls-1{fill:#2682ff;}.cls-2{fill:#ff9f22;}.cls-3{fill:#efefef;}</style></defs><path class="cls-1" d="M157.31,210.42c-3.17.27-4.58-.75-5.33-3.06-4.54-14.06-12.89-25.9-21.85-37.38-3.53-4.51-3-4.84,1.75-8.12,5.3-3.7,10.44-3.42,16.51-3.08s12.22-3,16.13-7.95c3.51-4.43,7.28-5.49,12-3.51,6.23,2.64,12.1.08,18.07-.7,4.63-.6,8.87-2.65,12.85-5.11,1.5-.93,3-2,4.79-.93,2.09,1.29,1.41,3.37,1.1,5.14-1.81,10.51-10.81,18.86-22.22,20.36a6.82,6.82,0,0,0-5.51,3.28,23.86,23.86,0,0,1-18.42,10.95c-2.83.25-3.05,1-1.94,3.37,2,4.35,3.5,8.92,5.52,13.25s.51,7.19-2.84,9.8A19,19,0,0,1,157.31,210.42Z"/><path class="cls-2" d="M219.56,106.47c2.4-10.54-.47-19.52-8.3-26.89A12,12,0,0,1,208.13,75c-3.28-8.37-9.31-14-18-16.35a13.2,13.2,0,0,1-6.59-4.31c-5.83-6.23-12.46-10.29-21.83-8.87-3.92.6-8.32.86-12.51-2.17-6.16-4.45-13.6-4.53-20.92-2.56-1.65.44-3.12,1-5,.35-9.19-2.94-17.79-1.54-25.51,4.34a5.31,5.31,0,0,1-4.34,1.28c-10-1.51-18.26,1.83-24.89,9.36a6.23,6.23,0,0,1-3.63,2.11c-9.69,2-16.35,7.78-20,17a9.57,9.57,0,0,1-3.43,4.27A27.32,27.32,0,0,0,30.81,97.26c-.67,3.9.09,7.79-.68,11.7a27,27,0,0,0,20.34,31.36,27.84,27.84,0,0,0,18.25-1.9c6-2.65,6.94-2.36,10.61,2.63a25.8,25.8,0,0,0,16.45,10.53,10.51,10.51,0,0,1,5.29,2.69c10.34,9.1,23.68,9.84,34.78,1.85A6.37,6.37,0,0,1,141,155c10.42,1.37,19.25-1.76,25.86-10.12,1.43-1.8,2.6-2.07,4.74-1.48a32,32,0,0,0,10.06,1.32c11.31,0,20.8-2.27,28.84-8.7s12-14.53,8.79-24.93C218.76,109.34,219.21,108,219.56,106.47ZM179,117.37a22.23,22.23,0,0,1-.22,10.32c-.45,2.07-1.37,3.32-3.51,2.8a3,3,0,0,1-2.42-4,24.48,24.48,0,0,0-.08-10.33c-1.78-8.48-8-12.43-15.32-15.15-4.76-1.76-9.75-2.92-14.18-5.5-2.08-1.21-3.12-.32-4.1,1.51-5,9.36-6.34,18.65.44,27.78,1.36,1.83,2.31,3.72.12,5.25s-3.65.26-5-1.66c-3.05-4.21-5.25-8.79-5.63-13.93-.23-3.06-1.36-4-4.25-4a13.3,13.3,0,0,0-9.2,3.26c-1.75,1.49-3.78,2-5.32,0s0-3.5,1.48-4.82c4-3.66,8.89-4.8,14.11-4.44,2.8.2,3.7-1,5-3.39,3.67-6.52,5.68-12.55-.62-18.61-.66-.63-.78-1.81-1.34-3.2-6.32,4.65-12.81,6.88-20.28,5.26-1.92-.41-2.8.45-3.33,2.4a23.9,23.9,0,0,1-12.8,15.67c-5.29,2.68-5.79,7.64-1.23,11.55.65.57,1.46,1,2.15,1.48,1.44,1.11,2,2.6,1,4.19s-2.68,1.39-4.25.63c-4.2-2-6.92-5.31-7.53-10-.43-3.39-1.85-4.7-5.37-4.33-6.57.7-13.41.16-18.6,5.58a2.79,2.79,0,0,1-4-.11c-1.4-1.33-1-2.84.08-4.28,3.16-4.09,7.71-5.61,12.49-6.33a119.45,119.45,0,0,1,12.12-.94c9.65-.47,17.6-6.27,20.16-14.6.77-2.53.66-4.34-1.81-6a49.64,49.64,0,0,1-6.29-5.34c-1.33-1.25-2.34-2.81-.87-4.56s3.12-1.34,4.63-.15a57.7,57.7,0,0,1,6.27,5.38c5,5.28,14.3,4.85,19.5,2.43,3.56-1.66,5.19-5,5.94-8.66.37-1.85.76-3.58,3.09-3.37s2.95,1.87,3.25,3.95a76.79,76.79,0,0,0,1.61,8.07c1.68,6.57,6.35,10.5,12.1,13.46,2.23,1.15,3.34.62,4.08-1.84,1.39-4.66,3.63-8.8,7.87-11.64,1.8-1.21,3.57-2.7,5.21-.4,1.37,1.91.62,3.73-1.47,5.12-3.31,2.19-4.85,5.59-6,9.28-.71,2.22-.16,3.06,2,3.75,6.61,2.13,12.53,5.36,16.45,11.43,1.19,1.84,2.82,1.42,4.64,1,6.3-1.58,12.6-2.18,18.58,1.25,1.77,1,3.9,2.13,2.3,4.67-1.36,2.16-3.19,1.8-5.27.61-4.79-2.74-9.82-1.79-14.78-.42C178.48,114.11,178.53,115.63,179,117.37Z"/><path class="cls-3" d="M128.92,79.31c-6.32,4.65-12.81,6.88-20.28,5.26-1.92-.41-2.8.45-3.33,2.4a23.9,23.9,0,0,1-12.8,15.67c-5.29,2.68-5.79,7.64-1.23,11.55.65.57,1.46,1,2.15,1.48,1.44,1.11,2,2.6,1,4.19s-2.68,1.39-4.25.63c-4.2-2-6.92-5.31-7.53-10-.43-3.39-1.85-4.7-5.37-4.33-6.57.7-13.41.16-18.6,5.58a2.79,2.79,0,0,1-4-.11c-1.4-1.33-1-2.84.08-4.28,3.16-4.09,7.71-5.61,12.49-6.33a119.45,119.45,0,0,1,12.12-.94c9.65-.47,17.6-6.27,20.16-14.6.77-2.53.66-4.34-1.81-6a49.64,49.64,0,0,1-6.29-5.34c-1.33-1.25-2.34-2.81-.87-4.56s3.12-1.34,4.63-.15a57.7,57.7,0,0,1,6.27,5.38c5,5.28,14.3,4.85,19.5,2.43,3.56-1.66,5.19-5,5.94-8.66.37-1.85.76-3.58,3.09-3.37s2.95,1.87,3.25,3.95a76.79,76.79,0,0,0,1.61,8.07c1.68,6.57,6.35,10.5,12.1,13.46,2.23,1.15,3.34.62,4.08-1.84,1.39-4.66,3.63-8.8,7.87-11.64,1.8-1.21,3.57-2.7,5.21-.4,1.37,1.91.62,3.73-1.47,5.12-3.31,2.19-4.85,5.59-6,9.28-.71,2.22-.16,3.06,2,3.75,6.61,2.13,12.53,5.36,16.45,11.43,1.19,1.84,2.82,1.42,4.64,1,6.3-1.58,12.6-2.18,18.58,1.25,1.77,1,3.9,2.13,2.3,4.67-1.36,2.16-3.19,1.8-5.27.61-4.79-2.74-9.82-1.79-14.78-.42-2.07.57-2,2.09-1.58,3.83a22.23,22.23,0,0,1-.22,10.32c-.45,2.07-1.37,3.32-3.51,2.8a3,3,0,0,1-2.42-4,24.48,24.48,0,0,0-.08-10.33c-1.78-8.48-8-12.43-15.32-15.15-4.76-1.76-9.75-2.92-14.18-5.5-2.08-1.21-3.12-.32-4.1,1.51-5,9.36-6.34,18.65.44,27.78,1.36,1.83,2.31,3.72.12,5.25s-3.65.26-5-1.66c-3.05-4.21-5.25-8.79-5.63-13.93-.23-3.06-1.36-4-4.25-4a13.24,13.24,0,0,0-9.2,3.25c-1.75,1.49-3.78,2-5.32,0s0-3.5,1.48-4.82c4-3.66,8.89-4.8,14.11-4.44,2.8.2,3.7-1,5-3.39,3.67-6.52,5.68-12.55-.63-18.61C129.6,81.88,129.48,80.7,128.92,79.31Z"/></svg>