<svg id="Camada_1" data-name="Camada 1" xmlns="http://www.w3.org/2000/svg" viewBox="0 0 250 250"><defs><style>.cls-1{fill:#e1f0ff;}.cls-2{fill:#bedcf0;}.cls-3{fill:#5e54ac;}.cls-4{fill:#453d81;}.cls-5{fill:#ff6378;}.cls-6{fill:#00ff93;}.cls-7{fill:#ffe278;}.cls-8{fill:#fff;}.cls-9{fill:#0086c9;}.cls-10{fill:#006ba0;}.cls-11{fill:#ffbb85;}.cls-12{fill:#ff5e95;}</style></defs><path class="cls-1" d="M86.1,137.86l15.78,15.08L125,130.41V84.51H39.33v83.23l33.9-30.12A9.5,9.5,0,0,1,86.1,137.86Z"/><path class="cls-1" d="M108.58,172.94a9.51,9.51,0,0,1-13.2.07L79.3,157.64l-40,35.52v2.45a15.08,15.08,0,0,0,15.06,15.06H125V156.94Z"/><path class="cls-2" d="M125,130.41l14.71-14.33a9.5,9.5,0,0,1,13.17-.09l57.79,54.79V84.51H125Z"/><path class="cls-2" d="M125,156.94v53.73h70.61a15.08,15.08,0,0,0,15-13.77l-64.18-60.84Z"/><path class="cls-3" d="M44.35,79.49H125V39.33H54.39A15.08,15.08,0,0,0,39.33,54.39V84.51A5,5,0,0,1,44.35,79.49ZM104.92,56.9a5,5,0,1,1-5,5A5,5,0,0,1,104.92,56.9Zm-20.08,0a5,5,0,1,1-5,5A5,5,0,0,1,84.84,56.9Zm-20.08,0a5,5,0,1,1-5,5A5,5,0,0,1,64.76,56.9Z"/><path class="cls-3" d="M125,79.49H44.35a5,5,0,0,0-5,5H125Z"/><path class="cls-4" d="M205.65,79.49a5,5,0,0,1,5,5V54.39a15.08,15.08,0,0,0-15.06-15.06H125V79.49ZM139.1,56.9h57.47a5,5,0,1,1,0,10H139.1a5,5,0,1,1,0-10Z"/><path class="cls-4" d="M205.65,79.49H125v5h85.67A5,5,0,0,0,205.65,79.49Z"/><circle class="cls-5" cx="64.76" cy="61.92" r="5.02"/><circle class="cls-6" cx="84.84" cy="61.92" r="5.02"/><circle class="cls-7" cx="104.92" cy="61.92" r="5.02" transform="translate(-11.42 25.76) rotate(-13.28)"/><path class="cls-8" d="M139.1,66.94h57.47a5,5,0,1,0,0-10H139.1a5,5,0,1,0,0,10Z"/><path class="cls-9" d="M95.38,173a9.51,9.51,0,0,0,13.2-.07l16.42-16V130.41l-23.12,22.53L86.1,137.86a9.5,9.5,0,0,0-12.87-.24l-33.9,30.12v25.42l40-35.52Z"/><path class="cls-10" d="M210.67,170.78,152.88,116a9.5,9.5,0,0,0-13.17.09L125,130.41v26.53l21.43-20.88,64.18,60.84c0-.43.06-.85.06-1.29Z"/><path class="cls-11" d="M108.87,102.65a4.1,4.1,0,0,1,0,3,3.21,3.21,0,0,1,1.83,1.93,3.17,3.17,0,0,1,.06,2.52,2.61,2.61,0,0,1-.49.76,3.5,3.5,0,0,1,1.45,1.68,3.65,3.65,0,0,1-1.64,4.7,2.92,2.92,0,0,1,.6,1,4.76,4.76,0,0,1,.19.57,2.81,2.81,0,0,1,.07.9,2.42,2.42,0,0,1-.21.83,4,4,0,0,1-2.13,2.13l-3.46,1.43c-1.45.6-2.77,1.1-4,1.5A25.23,25.23,0,0,1,94.78,127c-.58,0-1.09,0-1.55,0a5,5,0,0,0-2,.19l-2.28.94a3.78,3.78,0,0,1-2.69.28,3.32,3.32,0,0,1-1.81-2l-4.3-10.41a3.53,3.53,0,0,1-.11-2.68,3.44,3.44,0,0,1,2-1.89l.2-.08a4.28,4.28,0,0,0,2.38-1.73l0-.3c0-.06,0-.12,0-.16v0a1.77,1.77,0,0,1,0-.41,11.44,11.44,0,0,1,.54-2.25,10.6,10.6,0,0,1,1.61-2.88,4.65,4.65,0,0,0,1.18-2.72v-.09a15.93,15.93,0,0,0,.1-3.47,3.3,3.3,0,0,0-.25-.85,3.17,3.17,0,0,1,0-2.81,2.56,2.56,0,0,1,1-1l0,0,.06,0a4.84,4.84,0,0,1,3-.34,4.47,4.47,0,0,1,3.06,3,19,19,0,0,1,1.46,7.33l7.77-2.12A3.64,3.64,0,0,1,108.87,102.65Z"/><path class="cls-12" d="M174.18,184.22c-.69,2.8-2.37,5.11-5.28,7.26a71.41,71.41,0,0,1-10.13,5.69c-1.38.7-2.94,1.48-4.57,2.32a2,2,0,0,1-1.39.17h0a2,2,0,0,1-1.16-.8c-1-1.5-2.07-2.92-3-4.17h0a72.06,72.06,0,0,1-6.32-9.75,12.67,12.67,0,0,1-1.3-8.88,10.69,10.69,0,0,1,4.37-6.42,9.18,9.18,0,0,1,7.34-1.25,8.54,8.54,0,0,1,4.77,3.08,10.9,10.9,0,0,1,1.56,2.71h0a11.15,11.15,0,0,1,2.64-1.67,8.58,8.58,0,0,1,5.64-.51,9.14,9.14,0,0,1,5.92,4.52A10.67,10.67,0,0,1,174.18,184.22Z"/></svg>